<mxfile host="app.diagrams.net" modified="2022-08-29T07:26:57.692Z" agent="5.0 (Windows NT 10.0; Win64; x64) AppleWebKit/537.36 (KHTML, like Gecko) Chrome/104.0.5112.102 Safari/537.36 Edg/104.0.1293.63" etag="oytqWzAlQRIOZPWkzoTS" version="20.2.1" type="github">
  <diagram id="C5RBs43oDa-KdzZeNtuy" name="Page-1">
    <mxGraphModel dx="855" dy="511" grid="1" gridSize="10" guides="1" tooltips="1" connect="1" arrows="1" fold="1" page="1" pageScale="1" pageWidth="827" pageHeight="1169" math="0" shadow="0">
      <root>
        <mxCell id="WIyWlLk6GJQsqaUBKTNV-0" />
        <mxCell id="WIyWlLk6GJQsqaUBKTNV-1" parent="WIyWlLk6GJQsqaUBKTNV-0" />
        <mxCell id="G8rqnfmvcnJRh_lYSSvt-3" value="" style="edgeStyle=orthogonalEdgeStyle;rounded=0;orthogonalLoop=1;jettySize=auto;html=1;" edge="1" parent="WIyWlLk6GJQsqaUBKTNV-1" source="G8rqnfmvcnJRh_lYSSvt-0" target="G8rqnfmvcnJRh_lYSSvt-2">
          <mxGeometry relative="1" as="geometry">
            <mxPoint x="380" y="239.99999999999977" as="targetPoint" />
          </mxGeometry>
        </mxCell>
        <mxCell id="G8rqnfmvcnJRh_lYSSvt-0" value="创建安全场景任务" style="rounded=1;whiteSpace=wrap;html=1;fontSize=12;glass=0;strokeWidth=1;shadow=0;sketch=1;" vertex="1" parent="WIyWlLk6GJQsqaUBKTNV-1">
          <mxGeometry x="320" y="230" width="120" height="40" as="geometry" />
        </mxCell>
        <mxCell id="G8rqnfmvcnJRh_lYSSvt-6" value="" style="edgeStyle=orthogonalEdgeStyle;rounded=0;orthogonalLoop=1;jettySize=auto;html=1;" edge="1" parent="WIyWlLk6GJQsqaUBKTNV-1" source="G8rqnfmvcnJRh_lYSSvt-2" target="G8rqnfmvcnJRh_lYSSvt-5">
          <mxGeometry relative="1" as="geometry" />
        </mxCell>
        <mxCell id="G8rqnfmvcnJRh_lYSSvt-2" value="启动安全场景任务" style="rounded=1;whiteSpace=wrap;html=1;fontSize=12;glass=0;strokeWidth=1;shadow=0;sketch=1;" vertex="1" parent="WIyWlLk6GJQsqaUBKTNV-1">
          <mxGeometry x="320" y="310" width="120" height="40" as="geometry" />
        </mxCell>
        <mxCell id="G8rqnfmvcnJRh_lYSSvt-9" value="" style="edgeStyle=orthogonalEdgeStyle;rounded=0;orthogonalLoop=1;jettySize=auto;html=1;" edge="1" parent="WIyWlLk6GJQsqaUBKTNV-1" source="G8rqnfmvcnJRh_lYSSvt-5" target="G8rqnfmvcnJRh_lYSSvt-8">
          <mxGeometry relative="1" as="geometry" />
        </mxCell>
        <mxCell id="G8rqnfmvcnJRh_lYSSvt-5" value="提取安全场景模型入口规则" style="rounded=1;whiteSpace=wrap;html=1;fontSize=12;glass=0;strokeWidth=1;shadow=0;sketch=1;" vertex="1" parent="WIyWlLk6GJQsqaUBKTNV-1">
          <mxGeometry x="320" y="390" width="120" height="40" as="geometry" />
        </mxCell>
        <mxCell id="G8rqnfmvcnJRh_lYSSvt-12" value="" style="edgeStyle=orthogonalEdgeStyle;rounded=0;orthogonalLoop=1;jettySize=auto;html=1;" edge="1" parent="WIyWlLk6GJQsqaUBKTNV-1" source="G8rqnfmvcnJRh_lYSSvt-8" target="G8rqnfmvcnJRh_lYSSvt-11">
          <mxGeometry relative="1" as="geometry" />
        </mxCell>
        <mxCell id="G8rqnfmvcnJRh_lYSSvt-8" value="初始化入口规则引擎（引擎#1）" style="rounded=1;whiteSpace=wrap;html=1;fontSize=12;glass=0;strokeWidth=1;shadow=0;sketch=1;" vertex="1" parent="WIyWlLk6GJQsqaUBKTNV-1">
          <mxGeometry x="320" y="470" width="120" height="40" as="geometry" />
        </mxCell>
        <mxCell id="G8rqnfmvcnJRh_lYSSvt-14" value="" style="edgeStyle=orthogonalEdgeStyle;rounded=0;orthogonalLoop=1;jettySize=auto;html=1;" edge="1" parent="WIyWlLk6GJQsqaUBKTNV-1" source="G8rqnfmvcnJRh_lYSSvt-11" target="G8rqnfmvcnJRh_lYSSvt-13">
          <mxGeometry relative="1" as="geometry" />
        </mxCell>
        <mxCell id="G8rqnfmvcnJRh_lYSSvt-11" value="从ES中加载合并告警，发送引擎#1" style="rounded=1;whiteSpace=wrap;html=1;fontSize=12;glass=0;strokeWidth=1;shadow=0;sketch=1;" vertex="1" parent="WIyWlLk6GJQsqaUBKTNV-1">
          <mxGeometry x="320" y="545" width="120" height="40" as="geometry" />
        </mxCell>
        <mxCell id="G8rqnfmvcnJRh_lYSSvt-16" value="" style="edgeStyle=orthogonalEdgeStyle;rounded=0;orthogonalLoop=1;jettySize=auto;html=1;" edge="1" parent="WIyWlLk6GJQsqaUBKTNV-1" source="G8rqnfmvcnJRh_lYSSvt-13" target="G8rqnfmvcnJRh_lYSSvt-33">
          <mxGeometry relative="1" as="geometry">
            <mxPoint x="470" y="670" as="targetPoint" />
            <Array as="points">
              <mxPoint x="570" y="670" />
              <mxPoint x="570" y="1220" />
              <mxPoint x="380" y="1220" />
            </Array>
          </mxGeometry>
        </mxCell>
        <mxCell id="G8rqnfmvcnJRh_lYSSvt-19" value="" style="edgeStyle=orthogonalEdgeStyle;rounded=0;orthogonalLoop=1;jettySize=auto;html=1;" edge="1" parent="WIyWlLk6GJQsqaUBKTNV-1" source="G8rqnfmvcnJRh_lYSSvt-13" target="G8rqnfmvcnJRh_lYSSvt-18">
          <mxGeometry relative="1" as="geometry" />
        </mxCell>
        <mxCell id="G8rqnfmvcnJRh_lYSSvt-13" value="Match?" style="rhombus;whiteSpace=wrap;html=1;sketch=1;" vertex="1" parent="WIyWlLk6GJQsqaUBKTNV-1">
          <mxGeometry x="340" y="630" width="80" height="80" as="geometry" />
        </mxCell>
        <mxCell id="G8rqnfmvcnJRh_lYSSvt-17" value="No" style="text;html=1;align=center;verticalAlign=middle;resizable=0;points=[];autosize=1;strokeColor=none;fillColor=none;" vertex="1" parent="WIyWlLk6GJQsqaUBKTNV-1">
          <mxGeometry x="440" y="640" width="40" height="30" as="geometry" />
        </mxCell>
        <mxCell id="G8rqnfmvcnJRh_lYSSvt-22" value="" style="edgeStyle=orthogonalEdgeStyle;rounded=0;orthogonalLoop=1;jettySize=auto;html=1;" edge="1" parent="WIyWlLk6GJQsqaUBKTNV-1" source="G8rqnfmvcnJRh_lYSSvt-18" target="G8rqnfmvcnJRh_lYSSvt-21">
          <mxGeometry relative="1" as="geometry" />
        </mxCell>
        <mxCell id="G8rqnfmvcnJRh_lYSSvt-18" value="创建/更新&lt;br&gt;历史安全事件" style="rounded=1;whiteSpace=wrap;html=1;fontSize=12;glass=0;strokeWidth=1;shadow=0;sketch=1;" vertex="1" parent="WIyWlLk6GJQsqaUBKTNV-1">
          <mxGeometry x="320" y="750" width="120" height="40" as="geometry" />
        </mxCell>
        <mxCell id="G8rqnfmvcnJRh_lYSSvt-20" value="Yes" style="text;html=1;align=center;verticalAlign=middle;resizable=0;points=[];autosize=1;strokeColor=none;fillColor=none;" vertex="1" parent="WIyWlLk6GJQsqaUBKTNV-1">
          <mxGeometry x="374" y="710" width="40" height="30" as="geometry" />
        </mxCell>
        <mxCell id="G8rqnfmvcnJRh_lYSSvt-24" value="" style="edgeStyle=orthogonalEdgeStyle;rounded=0;orthogonalLoop=1;jettySize=auto;html=1;" edge="1" parent="WIyWlLk6GJQsqaUBKTNV-1" source="G8rqnfmvcnJRh_lYSSvt-21" target="G8rqnfmvcnJRh_lYSSvt-25">
          <mxGeometry relative="1" as="geometry">
            <mxPoint x="380" y="890" as="targetPoint" />
          </mxGeometry>
        </mxCell>
        <mxCell id="G8rqnfmvcnJRh_lYSSvt-21" value="保存合并告警副本" style="rounded=1;whiteSpace=wrap;html=1;fontSize=12;glass=0;strokeWidth=1;shadow=0;sketch=1;" vertex="1" parent="WIyWlLk6GJQsqaUBKTNV-1">
          <mxGeometry x="320" y="820" width="120" height="40" as="geometry" />
        </mxCell>
        <mxCell id="G8rqnfmvcnJRh_lYSSvt-28" value="" style="edgeStyle=orthogonalEdgeStyle;rounded=0;orthogonalLoop=1;jettySize=auto;html=1;" edge="1" parent="WIyWlLk6GJQsqaUBKTNV-1" source="G8rqnfmvcnJRh_lYSSvt-25" target="G8rqnfmvcnJRh_lYSSvt-27">
          <mxGeometry relative="1" as="geometry" />
        </mxCell>
        <mxCell id="G8rqnfmvcnJRh_lYSSvt-25" value="创建ES搜索任务" style="rounded=1;whiteSpace=wrap;html=1;fontSize=12;glass=0;strokeWidth=1;shadow=0;sketch=1;" vertex="1" parent="WIyWlLk6GJQsqaUBKTNV-1">
          <mxGeometry x="320" y="890" width="120" height="40" as="geometry" />
        </mxCell>
        <mxCell id="G8rqnfmvcnJRh_lYSSvt-34" value="" style="edgeStyle=orthogonalEdgeStyle;rounded=0;orthogonalLoop=1;jettySize=auto;html=1;" edge="1" parent="WIyWlLk6GJQsqaUBKTNV-1" source="G8rqnfmvcnJRh_lYSSvt-27" target="G8rqnfmvcnJRh_lYSSvt-29">
          <mxGeometry relative="1" as="geometry" />
        </mxCell>
        <mxCell id="G8rqnfmvcnJRh_lYSSvt-27" value="执行ES搜索任务" style="rounded=1;whiteSpace=wrap;html=1;fontSize=12;glass=0;strokeWidth=1;shadow=0;sketch=1;" vertex="1" parent="WIyWlLk6GJQsqaUBKTNV-1">
          <mxGeometry x="320" y="960" width="120" height="40" as="geometry" />
        </mxCell>
        <mxCell id="G8rqnfmvcnJRh_lYSSvt-35" style="edgeStyle=orthogonalEdgeStyle;rounded=0;orthogonalLoop=1;jettySize=auto;html=1;" edge="1" parent="WIyWlLk6GJQsqaUBKTNV-1" source="G8rqnfmvcnJRh_lYSSvt-29" target="G8rqnfmvcnJRh_lYSSvt-33">
          <mxGeometry relative="1" as="geometry">
            <Array as="points">
              <mxPoint x="380" y="1200" />
              <mxPoint x="380" y="1200" />
            </Array>
          </mxGeometry>
        </mxCell>
        <mxCell id="G8rqnfmvcnJRh_lYSSvt-38" value="" style="edgeStyle=orthogonalEdgeStyle;rounded=0;orthogonalLoop=1;jettySize=auto;html=1;" edge="1" parent="WIyWlLk6GJQsqaUBKTNV-1" source="G8rqnfmvcnJRh_lYSSvt-29" target="G8rqnfmvcnJRh_lYSSvt-18">
          <mxGeometry relative="1" as="geometry">
            <mxPoint x="380" y="1220" as="targetPoint" />
            <Array as="points">
              <mxPoint x="180" y="1140" />
              <mxPoint x="180" y="770" />
            </Array>
          </mxGeometry>
        </mxCell>
        <mxCell id="G8rqnfmvcnJRh_lYSSvt-29" value="Any Hit？" style="rhombus;whiteSpace=wrap;html=1;sketch=1;" vertex="1" parent="WIyWlLk6GJQsqaUBKTNV-1">
          <mxGeometry x="340" y="1030" width="80" height="80" as="geometry" />
        </mxCell>
        <mxCell id="G8rqnfmvcnJRh_lYSSvt-32" value="" style="edgeStyle=orthogonalEdgeStyle;rounded=0;orthogonalLoop=1;jettySize=auto;html=1;" edge="1" parent="WIyWlLk6GJQsqaUBKTNV-1" source="G8rqnfmvcnJRh_lYSSvt-31" target="G8rqnfmvcnJRh_lYSSvt-0">
          <mxGeometry relative="1" as="geometry" />
        </mxCell>
        <mxCell id="G8rqnfmvcnJRh_lYSSvt-31" value="开始" style="ellipse;whiteSpace=wrap;html=1;sketch=1;" vertex="1" parent="WIyWlLk6GJQsqaUBKTNV-1">
          <mxGeometry x="320" y="120" width="120" height="80" as="geometry" />
        </mxCell>
        <mxCell id="G8rqnfmvcnJRh_lYSSvt-33" value="结束" style="ellipse;whiteSpace=wrap;html=1;sketch=1;" vertex="1" parent="WIyWlLk6GJQsqaUBKTNV-1">
          <mxGeometry x="320" y="1180" width="120" height="80" as="geometry" />
        </mxCell>
        <mxCell id="G8rqnfmvcnJRh_lYSSvt-36" value="No" style="text;html=1;align=center;verticalAlign=middle;resizable=0;points=[];autosize=1;strokeColor=none;fillColor=none;" vertex="1" parent="WIyWlLk6GJQsqaUBKTNV-1">
          <mxGeometry x="340" y="1110" width="40" height="30" as="geometry" />
        </mxCell>
        <mxCell id="G8rqnfmvcnJRh_lYSSvt-39" value="Yes" style="text;html=1;align=center;verticalAlign=middle;resizable=0;points=[];autosize=1;strokeColor=none;fillColor=none;" vertex="1" parent="WIyWlLk6GJQsqaUBKTNV-1">
          <mxGeometry x="260" y="1040" width="40" height="30" as="geometry" />
        </mxCell>
      </root>
    </mxGraphModel>
  </diagram>
</mxfile>
